PathFileType	4	(X/Y/Z)	C3D_Data\SPM_data\ik.trc
DataRate	CameraRate	NumFrames	NumMarkers	Units	OrigDataRate	OrigDataStartFrame	OrigNumFrames
120.000000	120.000000	4	51	mm	120.000000	33	132
Frame#	Time	Sternum			Neck			RShoulder			LShoulder			Xiphoid			Thoracic			RAsis			LAsis			RPsis			LPsis			Lumbar			RElbow			RWrist			RRadius			RUlna			LElbow			LWrist			LUlna			LRadius			LThighSuperior			LThighInferior			LThighLateral			LPatella			LShankSuperior			LShankInferior			LShankLateral			RThighSuperior			RThighInferior			RThighLateral			RPatella			RShankSuperior			RShankInferior			RShankLateral			RHeel			RToe			RMidfootLateral			RHindfoot			LHeel			LToe			LMidfootMedial			LMidfootLateral			LHindfoot			LMidfootSuperior			LToeMedial			LToeLateral			Oglobal			Sacral			Xglobal			Yglobal			Zglobal			RMidfootSuperior			
		X1	Y1	Z1	X2	Y2	Z2	X3	Y3	Z3	X4	Y4	Z4	X5	Y5	Z5	X6	Y6	Z6	X7	Y7	Z7	X8	Y8	Z8	X9	Y9	Z9	X10	Y10	Z10	X11	Y11	Z11	X12	Y12	Z12	X13	Y13	Z13	X14	Y14	Z14	X15	Y15	Z15	X16	Y16	Z16	X17	Y17	Z17	X18	Y18	Z18	X19	Y19	Z19	X20	Y20	Z20	X21	Y21	Z21	X22	Y22	Z22	X23	Y23	Z23	X24	Y24	Z24	X25	Y25	Z25	X26	Y26	Z26	X27	Y27	Z27	X28	Y28	Z28	X29	Y29	Z29	X30	Y30	Z30	X31	Y31	Z31	X32	Y32	Z32	X33	Y33	Z33	X34	Y34	Z34	X35	Y35	Z35	X36	Y36	Z36	X37	Y37	Z37	X38	Y38	Z38	X39	Y39	Z39	X40	Y40	Z40	X41	Y41	Z41	X42	Y42	Z42	X43	Y43	Z43	X44	Y44	Z44	X45	Y45	Z45	X46	Y46	Z46	X47	Y47	Z47	X48	Y48	Z48	X49	Y49	Z49	X50	Y50	Z50	X51	Y51	Z51	

34	0.2750000000000001	427.8538208007813	1452.134521484375	147.0099639892578	264.482177734375	1553.20849609375	144.7894134521484	307.9773254394531	1542.205810546875	307.1600952148437	299.4603271484375	1539.788696289063	6.028293609619083	459.1940612792969	1294.562866210938	160.3213958740234	180.438735961914	1336.369506835938	153.9877471923828	360.1828002929687	1027.5947265625	300.5533752441406	384.1723327636719	1025.814208984375	25.81037902832029	178.449478149414	1057.317504882813	205.0359649658203	181.4368896484375	1048.425537109375	101.0211334228515	192.3846740722656	1155.027099609375	156.3795166015625	273.1491699218749	1206.117431640625	410.6375732421875	397.3777160644531	964.0581665039063	436.6263427734375	417.8593444824218	960.1311645507813	388.0278625488281	355.8496093749999	945.5608520507813	438.6994018554688	262.0100708007813	1200.171264648438	-103.4568099975586	375.371337890625	964.4653930664063	-163.3617401123047	337.9776916503906	949.303955078125	-139.9821014404297	414.5129089355469	965.5870971679688	-132.3219604492188	328.4700317382813	847.4447631835938	-23.07848548889162	368.6033020019531	619.03369140625	20.65280723571778	434.1947631835938	727.8394165039063	64.26976013183595	446.2797241210938	540.0568237304688	99.35498046875003	370.7374572753906	380.8021545410156	24.96096038818362	334.0066833496094	183.4167938232422	60.58304595947268	385.8564453125	277.3643798828125	97.16811370849612	347.2832641601562	834.8629760742188	348.2803649902344	399.0484313964843	604.3886108398438	342.18017578125	449.9200744628906	767.544189453125	288.0722351074219	478.3170471191406	513.9732055664063	291.9395141601563	337.8670043945312	482.4120483398438	352.3609313964844	179.489517211914	288.8599548339844	311.2051086425781	306.6372680664062	355.1276550292969	274.5533447265626	41.53195571899411	254.5826416015625	257.0361633300781	275.3243713378906	43.60089111328126	262.8806152343751	181.4315338134765	85.74423980712892	328.0198059082031	142.8905792236328	120.3486633300781	320.4155578613281	231.6396179199219	62.26427841186524	110.3313980102539	548.701416015625	61.02521896362305	79.77570343017585	453.5655822753906	36.08077239990235	141.0235137939454	444.7834777832031	32.92214965820313	23.473222732544	390.0489501953125	31.86260032653809	36.58732604980474	424.8247680664063	97.22523498535156	92.22020721435553	495.4842834472656	37.4944190979004	133.2559814453126	488.4613952636719	43.20271301269531	29.63390159606939	0	0	0	179.9431915283203	1052.87158203125	153.0285491943359	-200	0	-2.449293598294706e-14	-2.449293598294706e-14	1.224646799147353e-14	200	1.499759782661858e-30	200	-1.224646799147353e-14	176.1126861572265	185.3993225097657	269.84716796875	
35	0.2833333333333334	436.1670532226563	1452.993774414063	146.742431640625	272.8366394042969	1554.098266601563	144.7086486816406	316.3674011230468	1542.844970703125	307.0939331054687	307.783447265625	1541.12939453125	5.955940723419133	467.4901733398438	1295.55517578125	159.7307434082031	188.7989501953125	1337.254150390625	153.6565551757812	368.6867675781249	1028.430053710938	300.1206665039063	392.2441101074219	1026.8779296875	25.20562362670897	186.8154602050781	1058.294677734375	204.9115600585937	189.6796875	1049.38720703125	100.9039535522461	200.6725769042968	1155.997192382813	156.2588653564453	278.2019653320312	1206.931030273438	410.1534729003906	398.2956237792968	962.57666015625	435.8183898925781	417.9938354492187	957.6515502929688	386.8154602050781	356.9024047851562	944.998291015625	437.9277038574219	273.7865295410156	1201.471069335938	-105.037712097168	394.1273193359375	969.19140625	-164.8956451416016	356.4422912597656	953.3500366210938	-142.5771942138672	432.7499694824219	971.1408081054688	-133.7504119873047	335.5472106933594	847.3916015625	-22.88927078247071	372.552978515625	618.6614379882813	20.5928134918213	439.1719970703125	727.1762084960938	64.39648437500001	448.5814208984375	539.1431274414063	99.00409698486331	372.8035278320313	380.5048828125	24.86387634277346	334.8102722167969	183.3578338623047	60.79771423339847	386.74169921875	276.8944396972656	97.07266235351565	360.7768249511718	837.379638671875	348.1747131347656	412.5270690917968	606.8615112304688	341.5494689941406	461.0059204101562	770.1742553710938	287.5821838378906	493.3099975585937	517.9688720703125	291.2586059570313	354.0789489746093	482.9975280761719	352.3634338378906	202.0212707519531	284.9456176757813	311.7430419921875	324.5191955566406	354.0325927734375	273.2297973632813	63.68317794799802	245.0725250244141	257.4170227050781	305.9483947753906	43.47444534301759	263.0016174316407	210.8020782470703	82.69197082519533	328.6120910644531	170.7742462158203	115.6926345825195	320.9930114746094	232.2378387451172	60.91563415527344	111.1596145629883	548.8233032226563	60.87383651733399	79.78540039062507	453.5827941894531	36.03103256225587	141.0633239746094	444.8008117675781	32.89111328125	23.45519256591802	390.0806579589844	31.74226760864258	36.64054489135747	424.9326477050781	97.13087463378906	92.25015258789068	495.5698852539063	37.40788650512696	133.2580566406251	488.5654602050781	43.13400268554688	29.63570594787603	0	0	0	188.247573852539	1053.840942382813	152.9077606201172	-200	0	-2.449293598294706e-14	-2.449293598294706e-14	1.224646799147353e-14	200	1.499759782661858e-30	200	-1.224646799147353e-14	203.048583984375	181.4130401611328	270.5057983398438	
36	0.2916666666666667	444.5827026367188	1453.6142578125	146.3777770996093	281.2315673828125	1554.91796875	144.5195007324218	324.8251647949218	1543.41552734375	306.9318542480468	316.0668029785156	1542.307861328125	5.839696884155218	475.7303161621094	1296.057861328125	159.2000274658203	197.2230987548828	1338.055786132813	153.4229431152343	376.8234558105468	1029.055053710938	299.4292907714844	400.1853942871094	1027.26416015625	24.74205780029295	194.921890258789	1059.164428710938	204.349868774414	197.8093719482422	1050.380004882813	100.764778137207	208.9994812011718	1156.906372070313	155.7057342529297	283.4241943359374	1207.568481445313	409.3831787109375	399.5473022460937	961.3405151367188	435.329833984375	419.0965881347656	955.9755859375	386.18310546875	358.0148010253906	944.8421630859375	437.8406372070313	285.3842468261719	1202.869384765625	-106.8046264648438	412.5216064453125	973.8150634765625	-166.3358001708984	374.8388366699219	957.2750244140625	-144.7503662109375	450.8126831054688	976.9085693359375	-134.9989776611328	342.2075500488281	847.78857421875	-22.83597564697267	376.0858154296875	618.7391967773438	20.39690017700196	444.041015625	726.48828125	64.28932952880861	450.6891174316406	536.016845703125	95.75938415527347	374.2927856445313	380.2891845703125	24.78513336181643	335.4033813476563	183.3008880615234	60.69150161743167	387.8154602050781	276.5255126953125	97.04322814941409	374.0852355957031	839.8236083984375	347.8333129882813	425.8205261230468	609.2615966796875	340.6829528808594	471.8120422363281	772.9298095703125	286.9556884765625	507.9856262207031	521.847900390625	290.1503601074219	370.4664611816406	483.3325805664063	352.1617431640625	223.348403930664	280.2516479492188	311.527587890625	342.7344055175781	352.8658752441406	272.0256042480469	86.66495513916013	235.1189422607422	257.7205200195313	336.5493469238281	43.22658157348634	263.5505981445313	240.7270202636718	79.71372985839845	329.0962829589844	199.2839660644531	110.7186279296875	321.5115051269531	232.7033386230469	59.9527816772461	111.77197265625	548.8888549804688	60.68703842163087	79.71675872802741	453.5117797851563	35.87248229980469	140.8899841308594	444.8329772949219	32.84761428833008	23.42429542541509	390.4696960449219	31.3025188446045	36.74930191040044	425.0658874511719	96.99967956542969	92.36349487304693	495.5509338378906	37.22466278076173	133.1066894531251	488.6697082519531	43.05677032470703	29.48200225830084	0	0	0	196.3656311035156	1054.772216796875	152.5573272705078	-200	0	-2.449293598294706e-14	-2.449293598294706e-14	1.224646799147353e-14	200	1.499759782661858e-30	200	-1.224646799147353e-14	230.6105499267578	177.1087493896485	271.1054077148438	
37	0.3	452.8874206542969	1454.240844726563	146.0192413330078	289.6629638671875	1555.644165039063	144.3153839111328	333.2266235351562	1543.868408203125	306.7914428710937	324.4910888671875	1543.301391601563	5.735017299652045	483.9837341308594	1296.505249023438	158.5811767578125	205.5855255126953	1338.80322265625	153.1713714599609	384.4995727539062	1029.457397460938	298.6689147949219	408.1058654785156	1027.173828125	24.52906036376952	202.7518768310547	1059.914916992188	203.3989105224609	205.9486846923828	1051.329833984375	100.815315246582	217.2888793945312	1157.724731445313	154.8332977294922	288.9271545410156	1208.413696289063	408.651611328125	401.0386962890624	960.580322265625	435.0840454101563	420.8769836425781	955.1389770507813	386.070556640625	358.6909484863281	944.3809204101563	437.4462280273438	297.0905151367188	1203.84130859375	-108.1506271362305	430.6912841796875	978.510009765625	-167.6653442382813	393.4221801757813	960.9379272460938	-146.4829711914063	468.6511535644531	982.7024536132813	-136.2873992919922	349.019775390625	848.01318359375	-22.7110996246338	379.7705078125	618.6447143554688	20.27256965637208	448.862548828125	725.709228515625	64.37542724609376	454.0233459472656	535.8272094726563	95.80833435058597	375.8231811523438	380.0918579101563	24.65121078491213	335.5292663574219	183.8214416503906	60.38335800170901	388.9054260253906	276.3301696777344	96.98914337158206	387.0111694335937	842.0545043945313	347.4014282226563	438.7315673828124	611.44873046875	339.7260131835938	482.5289306640624	775.6681518554688	286.360595703125	522.29833984375	525.7605590820313	289.0381164550781	386.5099487304687	483.2248229980469	351.7504577636719	245.6481475830078	275.3643798828125	311.5729675292969	362.0938720703124	351.3673400878906	270.6765441894532	109.6942901611328	224.9218292236328	258.0003967285156	367.4782714843749	43.43606567382814	263.5227050781251	271.1145019531249	76.3200149536133	329.4521484375001	228.5899963378906	105.3850860595703	321.7954711914063	232.8014526367188	59.97463989257813	111.8322372436524	548.9619750976563	60.47421264648438	79.65321350097663	453.7102966308594	35.9956283569336	140.7657318115235	444.9848937988281	32.78470993041992	23.42613792419439	390.3655700683594	31.27346992492676	36.49453353881841	425.0170288085938	97.01966094970703	92.21023559570318	495.5814819335938	37.20733642578126	133.0861511230469	488.7039489746094	42.88020706176758	29.45237922668463	0	0	0	204.3502807617187	1055.622314453125	152.1071166992187	-200	0	-2.449293598294706e-14	-2.449293598294706e-14	1.224646799147353e-14	200	1.499759782661858e-30	200	-1.224646799147353e-14	258.9689025878906	172.4449615478516	271.4705505371094	
